/vscmnt/brussel_pixiu_data/_data_brussel/112/vsc11236/PredSimResults/SUBJ04opt3D/expIG/worker_04.mot
version=1
nRows=10
nColumns=50
inDegrees=yes
endheader
                time	         pelvis_tilt	         pelvis_list	     pelvis_rotation	           pelvis_tx	           pelvis_ty	           pelvis_tz	       hip_flexion_r	     hip_adduction_r	      hip_rotation_r	        knee_angle_r	       ankle_angle_r	         mtp_angle_r	       hip_flexion_l	     hip_adduction_l	      hip_rotation_l	        knee_angle_l	       ankle_angle_l	         mtp_angle_l	    lumbar_extension	      lumbar_bending	     lumbar_rotation	 ercspn_r/activation	 intobl_r/activation	 extobl_r/activation	    abd_r/activation	    add_r/activation	hamstrings_r/activation	bifemsh_r/activation	glut_max_r/activation	iliopsoas_r/activation	rect_fem_r/activation	  vasti_r/activation	gastroc_r/activation	 soleus_r/activation	tib_ant_r/activation	 ercspn_l/activation	 intobl_l/activation	 extobl_l/activation	    abd_l/activation	    add_l/activation	hamstrings_l/activation	bifemsh_l/activation	glut_max_l/activation	iliopsoas_l/activation	rect_fem_l/activation	  vasti_l/activation	gastroc_l/activation	 soleus_l/activation	tib_ant_l/activation	
          1.33357265	         -1.98152333	          0.57138036	          8.79871193	          1.20021538	          0.88361833	         -0.01224324	         29.07584314	         -3.77183755	        -10.62251805	        -11.55727958	          3.94449031	          0.23017676	        -11.97669776	         -0.29748955	         -8.08510535	         -7.74452386	         13.01375003	         19.73542253	        -13.96519210	         -3.88524284	         -7.50105487	          0.03892066	          0.22265143	          0.02064454	          0.01222261	          0.25075188	          0.06329839	          0.01090205	          0.01488639	          0.17191873	          0.03878038	          0.03713522	          0.00999999	          0.00999999	          0.32657379	          0.01864953	          0.00999999	          0.00999999	          0.06296855	          0.01000000	          0.02863459	          0.18556322	          0.01773101	          0.01825968	          0.01000002	          0.00999999	          0.23900370	          0.24099528	          0.00999999	
          1.34690838	         -2.08885880	          0.58409708	          8.57465696	          1.21536061	          0.88142653	         -0.01177650	         28.91178856	         -3.62967022	        -10.86399555	        -12.69008666	          3.75676492	          0.22508797	        -12.66583575	         -0.39278728	         -8.74808918	         -8.18695973	         12.72243858	         21.13545212	        -13.48429839	         -3.33481801	         -7.60410326	          0.03184313	          0.22201626	          0.01689044	          0.00999999	          0.25858457	          0.06601519	          0.01954758	          0.03274340	          0.14065619	          0.03172836	          0.03038237	          0.01825964	          0.01902668	          0.32907140	          0.02990161	          0.00999999	          0.00999999	          0.05151804	          0.01000002	          0.02342803	          0.15181950	          0.01452033	          0.01493925	          0.00999999	          0.01000000	          0.21836782	          0.23996686	          0.00999999	
          1.36024410	         -2.18168719	          0.53800443	          8.30704183	          1.23089363	          0.87938307	         -0.01125232	         28.64473160	         -3.47947522	        -11.00092783	        -13.78863037	          3.43772425	          0.22243641	        -13.30854122	         -0.55682983	         -9.44146767	         -8.77954670	         12.36096840	         22.56339383	        -12.96713667	         -2.69450346	         -7.68193839	          0.02605263	          0.20899750	          0.01381900	          0.03118994	          0.22093005	          0.06504777	          0.01599298	          0.02678918	          0.11507858	          0.02595872	          0.05289295	          0.01493922	          0.01556677	          0.35757479	          0.03256098	          0.00999999	          0.00999999	          0.04214975	          0.00999999	          0.01916777	          0.12421190	          0.01187989	          0.01222263	          0.01000000	          0.00999999	          0.17865875	          0.22832275	          0.00999999	
          1.37357983	         -2.26062893	          0.45373763	          7.98433316	          1.24661908	          0.87767404	         -0.01061807	         28.35355863	         -3.30780394	        -11.21913298	        -14.82671766	          3.00399685	          0.20426984	        -13.83628593	         -0.77617239	        -10.17296525	         -9.62350485	         11.89018233	         24.01971101	        -12.44491860	         -1.99330225	         -7.72739545	          0.02843206	          0.17099238	          0.01130608	          0.04709282	          0.21423797	          0.06697371	          0.01308476	          0.02191771	          0.09415213	          0.02123826	          0.11882020	          0.01222260	          0.01273604	          0.38400855	          0.04346918	          0.00999999	          0.00999999	          0.03448503	          0.01000000	          0.01568224	          0.10162460	          0.00999999	          0.01000002	          0.01000000	          0.01000000	          0.14617057	          0.21431017	          0.00999999	
          1.38691556	         -2.32603028	          0.33153987	          7.61594273	          1.26242695	          0.87647921	         -0.00986451	         28.00879675	         -3.10505023	        -11.53591967	        -15.80616870	          2.69699779	          0.18261626	        -14.18433059	         -1.06579529	        -10.93371202	        -10.81290785	         11.26181718	         25.52252992	        -11.93267605	         -1.23751639	         -7.73956668	          0.03278894	          0.13989829	          0.00999999	          0.07561729	          0.18591280	          0.06708864	          0.01070539	          0.01793217	          0.07703105	          0.01737619	          0.17520615	          0.00999999	          0.01042005	          0.39518489	          0.05797175	          0.00999999	          0.00999999	          0.02821410	          0.01000000	          0.01283059	          0.08314469	          0.00999999	          0.01000000	          0.01000000	          0.01000000	          0.11959020	          0.18387979	          0.00999999	
          1.40025128	         -2.37893806	          0.17326185	          7.21473402	          1.27818090	          0.87598377	         -0.00898780	         27.58119886	         -2.85328353	        -11.88257575	        -16.68110481	          2.60029649	          0.16080852	        -14.28087085	         -1.44321675	        -11.71511218	        -12.44784772	         10.42832243	         27.07063963	        -11.44627310	         -0.43608138	         -7.71951770	          0.03321381	          0.11445850	          0.00999999	          0.09653561	          0.16373737	          0.06774605	          0.01000001	          0.04063347	          0.06302334	          0.01421642	          0.20579866	          0.01000000	          0.01000000	          0.39208422	          0.09027084	          0.00999999	          0.00999999	          0.02308351	          0.01000000	          0.03401976	          0.06802525	          0.01000000	          0.01000000	          0.00999999	          0.02370531	          0.09784333	          0.15044219	          0.00999999	
          1.41358701	         -2.41997513	         -0.01607947	          6.79447687	          1.29376864	          0.87629790	         -0.00799353	         27.06762550	         -2.54125635	        -12.17931231	        -17.43394154	          2.70508105	          0.14775617	        -14.09373544	         -1.91896661	        -12.50894684	        -14.55602718	          9.33623483	         28.63513122	        -10.99677447	          0.39858957	         -7.67250857	          0.03340804	          0.09364481	          0.00999999	          0.11090567	          0.15381280	          0.07013457	          0.01000011	          0.03442674	          0.05156287	          0.01163124	          0.21651543	          0.00999999	          0.00999999	          0.37293750	          0.10582336	          0.00999999	          0.00999999	          0.01888590	          0.01000001	          0.06072735	          0.05565521	          0.01823986	          0.01000000	          0.00999999	          0.02242893	          0.08005102	          0.12308505	          0.00999999	
          1.42692274	         -2.44903827	         -0.21734925	          6.36657754	          1.30912013	          0.87739652	         -0.00689552	         26.46289800	         -2.17667778	        -12.36501611	        -18.04287081	          2.97727628	          0.15927400	        -13.59745970	         -2.48909753	        -13.31702637	        -17.17068267	          7.96919929	         30.14533242	        -10.59180777	          1.24067468	         -7.60364071	          0.03042314	          0.07661598	          0.01000000	          0.11729295	          0.16477482	          0.07375938	          0.01000003	          0.03088186	          0.04218643	          0.00999999	          0.22509196	          0.01000000	          0.01000000	          0.34016351	          0.09605294	          0.01000000	          0.00999999	          0.01545159	          0.10497305	          0.09125736	          0.04553460	          0.01581080	          0.00999999	          0.00999999	          0.01835034	          0.06549415	          0.10070266	          0.00999999	
          1.44025846	         -2.46646638	         -0.40131370	          5.93914752	          1.32416871	          0.87918887	         -0.00571636	         25.74316329	         -1.78233458	        -12.41681848	        -18.44410161	          3.32375676	          0.23024077	        -12.76058828	         -3.14213378	        -14.12942427	        -20.33199832	          6.32030034	         31.47821692	        -10.24051665	          2.05568415	         -7.51333824	          0.02727854	          0.06268376	          0.01000000	          0.11911747	          0.15877961	          0.07966693	          0.01000004	          0.02526618	          0.03451504	          0.00999999	          0.22121467	          0.01000000	          0.00999999	          0.31054430	          0.09305903	          0.02972045	          0.00999999	          0.01264180	          0.10603701	          0.09653826	          0.03725436	          0.01293569	          0.00999999	          0.00999999	          0.01501343	          0.05358438	          0.08239040	          0.00999999	
          1.45359419	         -2.47191343	         -0.53338492	          5.51725499	          1.33886003	          0.88152687	         -0.00446613	         24.90046994	         -1.40294681	        -12.37109626	        -18.60776830	          3.64209989	          0.36264979	        -11.56642574	         -3.86375294	        -14.93912208	        -24.07092042	          4.51454003	         32.24466311	         -9.95160581	          2.79938309	         -7.39560000	          0.02231808	          0.05128504	          0.01000000	          0.11895290	          0.16706954	          0.08465970	          0.01000002	          0.02862897	          0.02823866	          0.00999999	          0.21203742	          0.00999999	          0.00999999	          0.28419513	          0.08333936	          0.03891142	          0.00999999	          0.01034295	          0.15464907	          0.07898332	          0.03047985	          0.01058340	          0.00999999	          0.00999999	          0.01228331	          0.04384033	          0.06740813	          0.02770084	
